<svg id="Layer_1" data-name="Layer 1" xmlns="http://www.w3.org/2000/svg" viewBox="0 0 55.64 55.64"><defs><style>.cls-1{fill:#fff;stroke:#fff;stroke-miterlimit:10;}.cls-2{fill:#020202;}</style></defs><title>logo-head</title><rect class="cls-1" x="0.5" y="0.5" width="54.64" height="54.64" rx="3.71" ry="3.71"/><path class="cls-2" d="M22.6,43.81h0A6.7,6.7,0,0,1,22,41.09V17a3.93,3.93,0,0,0-1.15-2.78L9.54,2.88h0a1.27,1.27,0,0,1,.3.82V29.42A3.93,3.93,0,0,0,11,32.2Z" transform="translate(-0.52 -0.52)"/><path class="cls-2" d="M39.95,27.24l5.54-5.6a3.44,3.44,0,0,0,1-2.42V4a1.56,1.56,0,0,1,.37-1h0L30.54,19.41h0a1.23,1.23,0,0,1,1.66.07Z" transform="translate(-0.52 -0.52)"/><path class="cls-2" d="M22.43,27.52h0a1.06,1.06,0,0,1,1.37.11l6.6,6.6a1.81,1.81,0,0,1,0,2.56h0l-6.07,6.06a1.81,1.81,0,0,0,0,2.56h0l8.39,8.39h0a1.66,1.66,0,0,1,.12-2.22l7.45-7.45,6.32-6.32a1.81,1.81,0,0,0,0-2.56h0l-7.34-7.34-7.34-7.34a1.81,1.81,0,0,0-2.56,0h0Z" transform="translate(-0.52 -0.52)"/></svg>