<svg id="Layer_1" data-name="Layer 1" xmlns="http://www.w3.org/2000/svg" viewBox="0 0 616.33 834.47"><defs><style>.cls-1{fill:#010101;}</style></defs><title>logo</title><path class="cls-1" d="M222.37,678.65h0A109.8,109.8,0,0,1,212.91,634V239.24A64.46,64.46,0,0,0,194,193.66L8.32,8h0a20.88,20.88,0,0,1,4.84,13.39V442.8a64.43,64.43,0,0,0,18.89,45.58Z" transform="translate(-8.32 -7.96)"/><path class="cls-1" d="M506.64,407.11l90.72-91.8a56.34,56.34,0,0,0,16.39-39.71V26.76a25.56,25.56,0,0,1,6-16.47h0L352.42,278.8h0A20.17,20.17,0,0,1,379.58,280Z" transform="translate(-8.32 -7.96)"/><path class="cls-1" d="M219.59,411.63h0A17.41,17.41,0,0,1,242,413.49L350.19,521.68a29.63,29.63,0,0,1,.08,41.9l-.08.08L250.8,662.92a29.66,29.66,0,0,0,0,41.95l0,0L388.35,842.43h0a27.22,27.22,0,0,1,1.92-36.4L512.39,683.88,615.95,580.34a29.68,29.68,0,0,0,0-42h0L495.65,418.07l-120.3-120.3a29.66,29.66,0,0,0-41.95,0l0,0Z" transform="translate(-8.32 -7.96)"/></svg>